<?xml version="1.0" encoding="UTF-8" standalone="no"?>
<!-- Created with Inkscape (http://www.inkscape.org/) -->

<svg
   width="338.66666mm"
   height="338.66666mm"
   viewBox="0 0 338.66666 338.66665"
   version="1.1"
   id="svg697"
   inkscape:version="1.2 (dc2aeda, 2022-05-15)"
   sodipodi:docname="github.svg"
   xmlns:inkscape="http://www.inkscape.org/namespaces/inkscape"
   xmlns:sodipodi="http://sodipodi.sourceforge.net/DTD/sodipodi-0.dtd"
   xmlns="http://www.w3.org/2000/svg"
   xmlns:svg="http://www.w3.org/2000/svg">
  <sodipodi:namedview
     id="namedview699"
     pagecolor="#ffffff"
     bordercolor="#666666"
     borderopacity="1.0"
     inkscape:showpageshadow="2"
     inkscape:pageopacity="0.0"
     inkscape:pagecheckerboard="0"
     inkscape:deskcolor="#d1d1d1"
     inkscape:document-units="mm"
     showgrid="false"
     inkscape:zoom="0.14866305"
     inkscape:cx="191.7087"
     inkscape:cy="232.06843"
     inkscape:window-width="1366"
     inkscape:window-height="705"
     inkscape:window-x="0"
     inkscape:window-y="0"
     inkscape:window-maximized="1"
     inkscape:current-layer="layer1" />
  <defs
     id="defs694" />
  <g
     inkscape:label="Camada 1"
     inkscape:groupmode="layer"
     id="layer1"
     transform="translate(-7.784709,-9.8873549)">
    <rect
       style="fill:#fffdfd;stroke-width:1.30645;stroke-linecap:round;paint-order:markers stroke fill"
       id="rect17098"
       width="338.66666"
       height="338.66666"
       x="7.784709"
       y="9.8873549" />
    <g
       id="g17847"
       transform="matrix(1.9882463,0,0,1.9882463,39.541942,40.477943)">
      <path
         d="m 69.195157,9.8873548 c -33.911614,0 -61.4104478,27.4937642 -61.4104478,61.4104652 0,27.13275 17.5959548,50.15201 41.9962098,58.27223 3.069089,0.56845 4.195856,-1.33219 4.195856,-2.95419 0,-1.46439 -0.05708,-6.30194 -0.08331,-11.43337 -17.08443,3.71485 -20.689461,-7.24564 -20.689461,-7.24564 -2.793509,-7.09819 -6.81854,-8.985611 -6.81854,-8.985611 -5.57174,-3.811459 0.420001,-3.733155 0.420001,-3.733155 6.166689,0.432197 9.413752,6.329386 9.413752,6.329386 5.47719,9.38729 14.366187,6.6731 17.870527,5.10398 0.551189,-3.96909 2.142666,-6.679212 3.898915,-8.211727 C 44.348554,96.886867 30.00981,91.621197 30.00981,68.090419 c 0,-6.704633 2.398962,-12.182843 6.327367,-16.483446 -0.637611,-1.54777 -2.739633,-7.792746 0.594891,-16.251583 0,0 5.156871,-1.650479 16.892273,6.294807 4.898557,-1.360655 10.152026,-2.043016 15.370902,-2.066406 5.218905,0.02335 10.476438,0.705751 15.384134,2.066406 11.721162,-7.945286 16.870913,-6.294807 16.870913,-6.294807 3.34265,8.458837 1.23962,14.703813 0.60201,16.251583 3.93757,4.300603 6.32025,9.778813 6.32025,16.483446 0,23.58671 -14.366218,28.780179 -28.040888,30.300492 2.202683,1.905729 4.165358,5.642949 4.165358,11.372349 0,8.2168 -0.0712,14.82991 -0.0712,16.8526 0,1.6342 1.105406,3.54908 4.218255,2.94603 24.387025,-8.12934 41.960605,-31.140472 41.960605,-58.26407 0,-33.916701 -27.49477,-61.4104652 -61.409435,-61.4104652"
         style="fill:#1b1817;fill-opacity:1;fill-rule:evenodd;stroke:none;stroke-width:0.0352778"
         id="path155" />
      <path
         d="m 31.043957,98.05939 c -0.135196,0.306096 -0.615242,0.396605 -1.052538,0.187112 -0.445397,-0.200343 -0.695581,-0.616259 -0.551161,-0.922355 0.132313,-0.313217 0.613195,-0.400673 1.057612,-0.192215 0.446434,0.201353 0.700655,0.621345 0.546087,0.927441 v 0"
         style="fill:#1b1817;fill-opacity:1;fill-rule:nonzero;stroke:none;stroke-width:0.0352778"
         id="path157" />
      <path
         d="m 33.531359,100.83358 c -0.292876,0.27152 -0.865398,0.14543 -1.253862,-0.28371 -0.401696,-0.42813 -0.476933,-1.000659 -0.179877,-1.276248 0.302014,-0.270507 0.857269,-0.143383 1.259973,0.283738 0.401696,0.433212 0.479989,1.00168 0.173824,1.27625 v 0"
         style="fill:#1b1817;fill-opacity:1;fill-rule:nonzero;stroke:none;stroke-width:0.0352778"
         id="path159" />
      <path
         d="m 35.952691,104.37047 c -0.376272,0.26134 -0.991513,0.0161 -1.371849,-0.52982 -0.376271,-0.5461 -0.376271,-1.201 0.0086,-1.46337 0.381344,-0.26238 0.987448,-0.0254 1.372857,0.51559 0.375263,0.55524 0.375263,1.21015 -0.0086,1.4776 v 0"
         style="fill:#1b1817;fill-opacity:1;fill-rule:nonzero;stroke:none;stroke-width:0.0352778"
         id="path161" />
      <path
         d="m 39.269918,107.78736 c -0.336606,0.37118 -1.053548,0.27152 -1.578275,-0.23491 -0.536949,-0.49524 -0.686443,-1.19794 -0.348799,-1.56912 0.34067,-0.3722 1.061676,-0.26745 1.590468,0.2349 0.532885,0.49423 0.695581,1.20202 0.336606,1.56913 v 0"
         style="fill:#1b1817;fill-opacity:1;fill-rule:nonzero;stroke:none;stroke-width:0.0352778"
         id="path163" />
      <path
         d="m 43.84611,109.77139 c -0.148456,0.48101 -0.838964,0.69965 -1.534545,0.49525 -0.694572,-0.21052 -1.149136,-0.77389 -1.008809,-1.25998 0.14442,-0.48406 0.837955,-0.71185 1.538609,-0.49321 0.693564,0.20948 1.149136,0.7688 1.004745,1.25794 v 0"
         style="fill:#1b1817;fill-opacity:1;fill-rule:nonzero;stroke:none;stroke-width:0.0352778"
         id="path165" />
      <path
         d="m 48.871792,110.13952 c 0.0173,0.50643 -0.57255,0.92642 -1.302694,0.93558 -0.734238,0.0161 -1.328119,-0.39356 -1.336248,-0.89185 0,-0.51152 0.576585,-0.92744 1.310823,-0.93964 0.730144,-0.0141 1.328119,0.39253 1.328119,0.89591 v 0"
         style="fill:#1b1817;fill-opacity:1;fill-rule:nonzero;stroke:none;stroke-width:0.0352778"
         id="path167" />
      <path
         d="m 53.548645,109.34326 c 0.08734,0.49423 -0.419972,1.00168 -1.145071,1.13693 -0.712848,0.13018 -1.372858,-0.17492 -1.463344,-0.66507 -0.0885,-0.50643 0.42813,-1.01388 1.139969,-1.14506 0.72608,-0.12609 1.375913,0.17085 1.468446,0.6732 v 0"
         style="fill:#1b1817;fill-opacity:1;fill-rule:nonzero;stroke:none;stroke-width:0.0352778"
         id="path169" />
    </g>
  </g>
</svg>
