<?xml version="1.0" encoding="UTF-8" standalone="no"?>
<svg
   height="1280"
   width="1280"
   viewBox="0 0 1200.0034 1199.9993"
   version="1.1"
   id="svg11680"
   sodipodi:docname="itch.svg"
   inkscape:version="1.2 (dc2aeda, 2022-05-15)"
   xmlns:inkscape="http://www.inkscape.org/namespaces/inkscape"
   xmlns:sodipodi="http://sodipodi.sourceforge.net/DTD/sodipodi-0.dtd"
   xmlns="http://www.w3.org/2000/svg"
   xmlns:svg="http://www.w3.org/2000/svg">
  <defs
     id="defs11684" />
  <sodipodi:namedview
     id="namedview11682"
     pagecolor="#ffffff"
     bordercolor="#666666"
     borderopacity="1.0"
     inkscape:showpageshadow="2"
     inkscape:pageopacity="0.0"
     inkscape:pagecheckerboard="0"
     inkscape:deskcolor="#d1d1d1"
     showgrid="false"
     inkscape:zoom="0.17718814"
     inkscape:cx="598.23419"
     inkscape:cy="685.71183"
     inkscape:window-width="1366"
     inkscape:window-height="705"
     inkscape:window-x="0"
     inkscape:window-y="0"
     inkscape:window-maximized="1"
     inkscape:current-layer="svg11680" />
  <rect
     style="fill:#fa5c5c;fill-opacity:1;stroke-width:7.62903;stroke-linecap:round;paint-order:markers stroke fill"
     id="rect11862"
     width="1200.0034"
     height="1200.0034"
     x="0"
     y="-0.00037475684" />
  <path
     d="m 319.13361,262.44321 c -33.14513,19.68021 -98.44752,94.70039 -99.06688,114.37441 v 32.56603 c 0,41.28045 38.58623,77.56265 73.62041,77.56265 42.06704,0 77.11672,-34.86386 77.11981,-76.24341 0,41.37955 33.84811,76.24341 75.91825,76.24341 42.07323,0 74.83436,-34.86386 74.83436,-76.24341 0,41.37955 35.99111,76.24341 78.06124,76.24341 h 0.76182 c 42.07323,0 78.06433,-34.86386 78.06433,-76.24341 0,41.37955 32.76423,76.24341 74.83127,76.24341 42.07014,0 75.91825,-34.86386 75.91825,-76.24341 0,41.37955 35.05586,76.24341 77.1198,76.24341 35.03419,0 73.62042,-36.27601 73.62042,-77.56265 V 376.81762 C 979.31733,357.1405 914.01494,282.11723 880.876,262.44321 c -103.01842,-3.61707 -174.437,-4.24263 -280.87739,-4.22714 -106.43729,0.009 -251.54751,1.67227 -280.87119,4.22714 z m 201.8933,205.06133 a 86.788043,86.788043 0 0 1 -14.80274,19.06085 c -15.88043,15.5274 -37.64789,25.15228 -61.64506,25.15228 a 88.203284,88.203284 0 0 1 -61.77512,-25.16466 c -5.75387,-5.63619 -10.12656,-11.66258 -14.13074,-18.67995 l -0.0186,0.0124 c -4.00107,7.02975 -9.57533,13.05304 -15.34158,18.69543 a 88.259027,88.259027 0 0 1 -61.77513,25.14608 c -2.89242,0 -5.90252,-0.79898 -8.33661,-1.63512 -3.38171,35.2169 -4.80934,68.87301 -5.31412,93.41212 l -0.006,0.13936 c -0.0619,12.46155 -0.12387,22.70889 -0.18581,36.94492 0.65033,73.88983 -7.31776,239.48854 32.57842,280.1775 61.82467,14.41564 175.58901,20.98087 289.72187,21.02113 h 0.0186 c 114.12976,-0.0403 227.89409,-6.60549 289.71877,-21.02113 39.89617,-40.69206 31.92809,-206.29076 32.57842,-280.1806 -0.0681,-14.23293 -0.12387,-24.48027 -0.18581,-36.94492 l -0.009,-0.13936 c -0.50168,-24.5453 -1.92931,-58.19831 -5.31103,-93.41521 -2.43409,0.83614 -5.44109,1.63512 -8.3366,1.63512 a 88.259027,88.259027 0 0 1 -61.77541,-25.14609 c -5.76626,-5.64239 -11.34051,-11.66258 -15.34468,-18.69543 l -0.0186,-0.0124 c -4.00727,7.01737 -8.37687,13.04685 -14.13074,18.67994 a 88.19709,88.19709 0 0 1 -61.77203,25.16157 c -23.99406,0 -45.76462,-9.63107 -61.64505,-25.15537 A 86.788043,86.788043 0 0 1 678.97978,467.49214 86.679654,86.679654 0 0 1 664.3133,486.553 88.228058,88.228058 0 0 1 602.53198,511.71147 c -0.83614,0 -1.67227,-0.0372 -2.50841,-0.0619 h -0.0217 c -0.83614,0.0248 -1.67228,0.0619 -2.5177,0.0619 a 88.228058,88.228058 0 0 1 -61.78132,-25.15538 86.685848,86.685848 0 0 1 -14.66649,-19.06085 z m -63.4412,82.03444 -0.006,0.031 h 0.0465 c 25.12441,0.0527 47.4431,0 75.0976,30.18149 21.76436,-2.28234 44.50732,-3.42197 67.26886,-3.3879 h 0.0186 c 22.76154,-0.031 45.5045,1.10556 67.27196,3.3879 27.65449,-30.18458 49.97319,-30.13194 75.09759,-30.18149 h 0.0434 l -0.006,-0.031 c 11.87007,0 59.35343,0 92.43972,92.92592 l 35.53897,127.4801 c 26.33525,94.83665 -8.43261,97.15616 -51.80031,97.23977 -64.3145,-2.39383 -99.9247,-49.09989 -99.9247,-95.79975 -35.6009,5.83438 -77.13219,8.75157 -118.66349,8.75467 h -0.0186 c -41.53439,0 -83.06568,-2.92029 -118.66348,-8.75467 0,46.69986 -35.6133,93.40592 -99.92471,95.79975 -43.36769,-0.0836 -78.13246,-2.40003 -51.79721,-97.23977 l 35.54826,-127.477 c 33.0863,-92.92592 80.56965,-92.92592 92.43972,-92.92592 z m 142.40671,73.02893 v 0.0186 c -0.0619,0.0619 -67.70551,62.1839 -79.86668,84.27963 l 44.29674,-1.77447 v 38.62958 c 0,1.80854 17.77568,1.0715 35.56994,0.24774 h 0.0186 c 17.78807,0.82376 35.56684,1.5608 35.56684,-0.24774 v -38.62958 l 44.29674,1.77447 c -12.16426,-22.09573 -79.86668,-84.27963 -79.86668,-84.27963 v -0.0186 l -0.009,0.006 z"
     color="#000000"
     fill="#ffffff"
     id="path11678"
     style="stroke-width:3.09681" />
</svg>
