<?xml version="1.0" encoding="UTF-8" standalone="no"?>
<!-- Generator: Adobe Illustrator 19.0.0, SVG Export Plug-In . SVG Version: 6.00 Build 0)  -->

<svg
   version="1.1"
   id="Layer_1"
   x="0px"
   y="0px"
   viewBox="0 0 1280 1280"
   xml:space="preserve"
   sodipodi:docname="linkedin.svg"
   inkscape:version="1.2 (dc2aeda, 2022-05-15)"
   width="1280"
   height="1280"
   xmlns:inkscape="http://www.inkscape.org/namespaces/inkscape"
   xmlns:sodipodi="http://sodipodi.sourceforge.net/DTD/sodipodi-0.dtd"
   xmlns="http://www.w3.org/2000/svg"
   xmlns:svg="http://www.w3.org/2000/svg"><defs
   id="defs22669" /><sodipodi:namedview
   id="namedview22667"
   pagecolor="#ffffff"
   bordercolor="#666666"
   borderopacity="1.0"
   inkscape:showpageshadow="2"
   inkscape:pageopacity="0.0"
   inkscape:pagecheckerboard="0"
   inkscape:deskcolor="#d1d1d1"
   showgrid="false"
   inkscape:zoom="0.1432083"
   inkscape:cx="607.50667"
   inkscape:cy="1092.8137"
   inkscape:window-width="1366"
   inkscape:window-height="705"
   inkscape:window-x="0"
   inkscape:window-y="0"
   inkscape:window-maximized="1"
   inkscape:current-layer="Layer_1" />
<rect
   style="fill:#0e76a8;fill-opacity:1;stroke-width:3.72995;stroke-linecap:round;paint-order:markers stroke fill"
   id="rect22847"
   width="1280"
   height="1280"
   x="0"
   y="0" /><g
   id="g22634"
   transform="scale(4.3938088)">
	<path
   style="fill:#0e76a8"
   d="m 145.659,0 c 80.45,0 145.66,65.219 145.66,145.66 0,80.441 -65.21,145.659 -145.66,145.659 C 65.209,291.319 0,226.1 0,145.66 0,65.22 65.21,0 145.659,0 Z"
   id="path22630" />
	<path
   style="fill:#ffffff"
   d="m 82.079,200.136 h 27.275 v -90.91 H 82.079 Z m 106.259,-94.059 c -13.237,0 -25.081,4.834 -33.483,15.504 V 108.927 H 127.48 v 91.21 h 27.375 v -49.324 c 0,-10.424 9.55,-20.593 21.512,-20.593 11.962,0 14.912,10.169 14.912,20.338 v 49.57 h 27.275 v -51.6 c -0.001,-35.842 -16.97,-42.451 -30.216,-42.451 z m -92.749,-5.936 c 7.538,0 13.656,-6.118 13.656,-13.656 0,-7.538 -6.118,-13.655 -13.656,-13.655 -7.538,0 -13.656,6.118 -13.656,13.656 0,7.538 6.118,13.655 13.656,13.655 z"
   id="path22632" />
</g>
<g
   id="g22636">
</g>
<g
   id="g22638">
</g>
<g
   id="g22640">
</g>
<g
   id="g22642">
</g>
<g
   id="g22644">
</g>
<g
   id="g22646">
</g>
<g
   id="g22648">
</g>
<g
   id="g22650">
</g>
<g
   id="g22652">
</g>
<g
   id="g22654">
</g>
<g
   id="g22656">
</g>
<g
   id="g22658">
</g>
<g
   id="g22660">
</g>
<g
   id="g22662">
</g>
<g
   id="g22664">
</g>
</svg>
