<?xml version="1.0" encoding="UTF-8" standalone="no"?>
<!-- Generator: Adobe Illustrator 19.0.0, SVG Export Plug-In . SVG Version: 6.00 Build 0)  -->

<svg
   version="1.1"
   id="Layer_1"
   x="0px"
   y="0px"
   viewBox="0 0 310 310"
   style="enable-background:new 0 0 310 310;"
   xml:space="preserve"
   sodipodi:docname="youtube.svg"
   inkscape:version="1.2 (dc2aeda, 2022-05-15)"
   xmlns:inkscape="http://www.inkscape.org/namespaces/inkscape"
   xmlns:sodipodi="http://sodipodi.sourceforge.net/DTD/sodipodi-0.dtd"
   xmlns="http://www.w3.org/2000/svg"
   xmlns:svg="http://www.w3.org/2000/svg"><defs
   id="defs5730" /><sodipodi:namedview
   id="namedview5728"
   pagecolor="#ffffff"
   bordercolor="#666666"
   borderopacity="1.0"
   inkscape:showpageshadow="2"
   inkscape:pageopacity="0.0"
   inkscape:pagecheckerboard="0"
   inkscape:deskcolor="#d1d1d1"
   showgrid="false"
   inkscape:zoom="0.76129032"
   inkscape:cx="78.813559"
   inkscape:cy="199.00424"
   inkscape:window-width="1366"
   inkscape:window-height="705"
   inkscape:window-x="0"
   inkscape:window-y="0"
   inkscape:window-maximized="1"
   inkscape:current-layer="Layer_1" />
<rect
   style="fill:#fffdfd;stroke-width:1.6;stroke-linecap:round;paint-order:markers stroke fill;fill-opacity:1"
   id="rect13887"
   width="120.97052"
   height="120.14482"
   x="102.68704"
   y="93.75193" /><g
   id="XMLID_822_"
   style="fill:#ff0000;fill-opacity:1">
	<path
   id="XMLID_823_"
   d="M297.917,64.645c-11.19-13.302-31.85-18.728-71.306-18.728H83.386c-40.359,0-61.369,5.776-72.517,19.938   C0,79.663,0,100.008,0,128.166v53.669c0,54.551,12.896,82.248,83.386,82.248h143.226c34.216,0,53.176-4.788,65.442-16.527   C304.633,235.518,310,215.863,310,181.835v-53.669C310,98.471,309.159,78.006,297.917,64.645z M199.021,162.41l-65.038,33.991   c-1.454,0.76-3.044,1.137-4.632,1.137c-1.798,0-3.592-0.484-5.181-1.446c-2.992-1.813-4.819-5.056-4.819-8.554v-67.764   c0-3.492,1.822-6.732,4.808-8.546c2.987-1.814,6.702-1.938,9.801-0.328l65.038,33.772c3.309,1.718,5.387,5.134,5.392,8.861   C204.394,157.263,202.325,160.684,199.021,162.41z"
   style="fill:#ff0000;fill-opacity:1" />
</g>
<g
   id="g5697">
</g>
<g
   id="g5699">
</g>
<g
   id="g5701">
</g>
<g
   id="g5703">
</g>
<g
   id="g5705">
</g>
<g
   id="g5707">
</g>
<g
   id="g5709">
</g>
<g
   id="g5711">
</g>
<g
   id="g5713">
</g>
<g
   id="g5715">
</g>
<g
   id="g5717">
</g>
<g
   id="g5719">
</g>
<g
   id="g5721">
</g>
<g
   id="g5723">
</g>
<g
   id="g5725">
</g>
<path
   id="rect8497"
   style="fill:#ff0000;stroke-width:1.63727;stroke-linecap:round;paint-order:markers stroke fill"
   d="M -17.30895,-6.1321325 H 314.58402 L 320.23737,145.07038 148.63754,99.398149 -20.492934,130.42623 Z"
   sodipodi:nodetypes="cccccc" /><path
   id="path10101"
   style="fill:#ff0000;stroke-width:1.52955;stroke-linecap:round;paint-order:markers stroke fill"
   d="m -12.364793,168.50652 165.988133,47.57139 165.19364,-45.77765 -4.7116,159.1298 H -6.8586998 Z"
   sodipodi:nodetypes="cccccc" /></svg>
